<?xml version="1.0" ?><svg xmlns="http://www.w3.org/2000/svg" xmlns:xlink="http://www.w3.org/1999/xlink" version="1.1" viewBox="0 0 512 512" style="enable-background:new 0 0 512 512;" xml:space="preserve"><g id="_x35_0_x2C__paper_boat_x2C__paper_ship_x2C__art_and_design_x2C__origami_x2C__hobby_x2C__art"><g><g><path style="fill:#3A98FF;" d="M510.107,197.179c-2.276-5.031-8.198-7.262-13.233-4.989L255.995,301.158L15.118,192.19     c-5.032-2.273-10.956-0.043-13.233,4.989c-2.276,5.032-0.042,10.957,4.989,13.233l224.859,101.722L76.873,382.19     c-5.031,2.276-7.266,8.201-4.989,13.233c2.269,5.013,8.178,7.273,13.233,4.989l170.878-77.302l170.878,77.302     c5.053,2.283,10.964,0.025,13.233-4.989c2.276-5.032,0.042-10.957-4.989-13.233l-154.859-70.055l224.859-101.722     C510.149,208.136,512.383,202.211,510.107,197.179z"/></g><g><path style="fill:#283954;" d="M499.455,191.421c-0.03,0.01-0.07,0.01-0.1,0.02c-60.99,9.52-118.27,15.46-174.88,18.17     c-13.375-21.005-59.825-93.97-60.1-94.38c-4.059-6.091-12.759-6.004-16.76,0c-0.275,0.41-46.809,73.509-60.13,94.43     c-95.871-4.566-171.45-17.999-175.75-18.33c-0.656-0.077-1.991-0.035-3.03,0.23c-5.801,1.348-9.194,7.59-7.09,13.2     c6.085,16.517-8.43-22.882,70,190c1.333,3.71,5.019,6.54,9.38,6.54h350c4.142,0,7.694-2.601,9.11-5.88     c0.05-0.1,0.1-0.2,0.14-0.31c23.35-56.73,46.95-134.02,70-190C513.21,197.921,507.142,190.238,499.455,191.421z M425.625,377.901     c-0.46,1.14-0.91,2.27-1.36,3.4h-336.3l-1.3-3.54l-58.03-157.51l-2.41-6.53c17.51,2.58,34.7,4.86,51.63,6.85     c33.22,3.92,65.47,6.72,97.28,8.48l-17.56,27.59l18.41,8.33l70.01-109.96v141.63l10,4.52l10-4.52v-141.63l70.01,109.96     l18.41-8.33l-17.59-27.63c32.01-1.78,64.28-4.58,97.35-8.46c16.79-1.96,33.79-4.21,51.06-6.75c-0.87,2.24-1.74,4.5-2.6,6.78     C463.546,270.611,444.505,330.321,425.625,377.901z"/></g></g></g><g id="Layer_1"/></svg>